DataRate=1000.000000
DataType=double
version=3
OpenSimVersion=4.3-2021-08-27-4bc7ad9
endheader
time	f1_1	f1_2	f1_3	p1_1	p1_2	p1_3	m1_1	m1_2	m1_3	f2_1	f2_2	f2_3	p2_1	p2_2	p2_3	m2_1	m2_2	m2_3	f3_1	f3_2	f3_3	p3_1	p3_2	p3_3	m3_1	m3_2	m3_3
0	-0.8047655822317145	-1.079722220226453	3.301888313706742	14.45976257324219	-321.9847340583801	-1.820896983146667	-268.3125816217697	-1036.676466294759	104.2106839664958	1.655822933462609	-2.544175738669211	0.9467366220852004	-187.90687251091	287.4620535373688	-5.94753485918045	-202.8504906796506	139.4701970779199	-264.6999059861352	0.3146010560986689	-4.641091751639681	-1.713791238382414	213.2717213630676	287.216891169548	0.05869996547698975	-658.6472733312698	-275.9516463982227	-454.1613036626424
0.001	-0.6896233628738297	-0.9719749094819082	3.569334216355657	14.45976257324219	-321.9847340583801	-1.820896983146667	-131.1800142849884	-1185.727401116721	171.8108417616053	1.803968092811678	-2.15140843128589	-0.7228630323795224	-187.90687251091	287.4620535373688	-5.94753485918045	-37.55010701108816	-87.77696278539844	-193.3787832599006	0.1470150295415568	-5.345261698310058	-1.558702337753159	213.2717213630676	287.216891169548	0.05869996547698975	-687.9848822089799	-287.7983756782783	-472.8048015419668
0.002	-0.7770760763290899	-1.020116707219051	3.744542672273103	14.45976257324219	-321.9847340583801	-1.820896983146667	-98.62455256882123	-827.4312542678473	152.791900554242	1.147702752973381	-1.996709639775948	1.505197910568609	-187.90687251091	287.4620535373688	-5.94753485918045	-61.06810413102253	100.6525402335791	-91.31246222006519	0.1863317053420168	-4.972266217662021	-1.401996747162966	213.2717213630676	287.216891169548	0.05869996547698975	-579.6426875912754	-176.6867180800553	-378.6403534106996
0.003	-0.5528318097662958	-0.8335876000701948	3.21452919429301	14.45976257324219	-321.9847340583801	-1.820896983146667	-213.6590483374561	-953.942753567461	111.66910781541	1.801857594057354	-2.622130383653958	-1.597071770770227	-187.90687251091	287.4620535373688	-5.94753485918045	-78.83707571834928	-40.23076957084796	-149.1908271789061	0.06479728815646121	-4.889699499103502	-1.638447784545715	213.2717213630676	287.216891169548	0.05869996547698975	-622.9163334536546	-293.5953713358049	-390.6662317561175
0.004	-0.7550364853832492	-1.039170408525282	3.567664979265325	14.45976257324219	-321.9847340583801	-1.820896983146667	-279.8438467786009	-762.2881584881798	129.56156055361	1.730306713887884	-1.720168867065372	0.707989284642917	-187.90687251091	287.4620535373688	-5.94753485918045	48.43908728983711	183.771203074196	-189.0372360341685	0.03812614645480029	-4.766541492820715	-2.813067654909611	213.2717213630676	287.216891169548	0.05869996547698975	-571.5656429866617	-319.9413847279268	-323.6372233111899
0.005	-0.8013670108982917	-0.9718265781923392	3.657556922612777	14.45976257324219	-321.9847340583801	-1.820896983146667	-281.0866221889431	-951.2161195823774	172.8551809714408	2.036766321470923	-2.268305895903775	-1.280167395993503	-187.90687251091	287.4620535373688	-5.94753485918045	3.900196447047308	-109.8518267829306	-182.4895099566357	-0.2215146428770975	-5.180119403315602	-1.954916979831145	213.2717213630676	287.216891169548	0.05869996547698975	-636.0022143388002	-243.7674588683432	-321.2378917595046
0.006	-0.8447022868620658	-0.9291190284585605	3.74434744633788	14.45976257324219	-321.9847340583801	-1.820896983146667	-171.3149916524073	-741.6434575278543	152.7780017082571	1.762219876742891	-2.269225199519009	-1.437958729505452	-187.90687251091	287.4620535373688	-5.94753485918045	98.82342194879244	95.99454642834951	-124.9372969678275	-0.5365867437873927	-5.140108685295161	-3.289670538387727	213.2717213630676	287.216891169548	0.05869996547698975	-493.5158400375611	-276.7039452606365	-307.773904256806
0.007	-0.7141651124330948	-0.9913027868102345	2.691458565915393	14.45976257324219	-321.9847340583801	-1.820896983146667	-205.2422359397767	-910.3285324242488	182.5835756459141	1.526147369069731	-2.976090455098995	-2.311177943879223	-187.90687251091	287.4620535373688	-5.94753485918045	-273.4685161908744	116.960858249445	-195.3830218920893	-0.3497839935697563	-5.51129399575603	-1.643122488492818	213.2717213630676	287.216891169548	0.05869996547698975	-649.5427927787691	-201.0056731631711	-352.9217477539902
0.008	-0.6422958848420677	-1.017634964352769	3.482291487353465	14.45976257324219	-321.9847340583801	-1.820896983146667	-235.8822613973668	-931.6273339920339	173.4648207136848	1.5744502506506	-2.112955596863671	0.5497013978783624	-187.90687251091	287.4620535373688	-5.94753485918045	-35.38041146489483	115.6453544558571	-19.58597488465829	-0.1724238546389799	-4.517877828468738	-2.581135474602512	213.2717213630676	287.216891169548	0.05869996547698975	-607.7015390920621	-207.9610615261217	-359.0405125210812
0.009000000000000001	-0.8049544087754893	-1.033239941114987	3.123994917854956	14.45976257324219	-321.9847340583801	-1.820896983146667	-249.9031986442106	-931.8004730021287	68.78336278481596	2.035425225142538	-2.268309273715075	-1.598060881424682	-187.90687251091	287.4620535373688	-5.94753485918045	35.18219009436516	80.99175989515513	-151.3226718281649	-0.1731852784743683	-4.973483147539742	-2.502441832576515	213.2717213630676	287.216891169548	0.05869996547698975	-547.794770887049	-292.5177671851859	-416.2563884993182
0.01	-0.6441890514545169	-0.9921707486750795	3.127943723364101	14.45976257324219	-321.9847340583801	-1.820896983146667	-188.4265065446019	-911.5916621310769	129.4769686553026	1.177867190693932	-2.624223149511034	-1.117590607302355	-187.90687251091	287.4620535373688	-5.94753485918045	-175.3600430732523	126.7682361718483	-289.759841311166	-0.2286689692057705	-4.765354885783732	-1.407450544885382	213.2717213630676	287.216891169548	0.05869996547698975	-602.5786585507037	-234.3856184686585	-350.65165641747
0.011	-0.6457777810089571	-0.9462403387588166	2.60146323574135	14.45976257324219	-321.9847340583801	-1.820896983146667	-111.085841289852	-848.9871156052079	146.3182302153312	2.038679111300579	-2.739017595131348	-1.200695678090251	-187.90687251091	287.4620535373688	-5.94753485918045	216.5291433044302	52.98865507423925	-142.6730178698694	0.2635680273042115	-5.386038009679651	-0.9309645534532437	213.2717213630676	287.216891169548	0.05869996547698975	-564.3343696308731	-199.0523371551325	-487.9593846683114
0.012	-0.4641505918301083	-0.7866904908141108	2.777119654491957	14.45976257324219	-321.9847340583801	-1.820896983146667	-244.11922062295	-1058.96766622634	148.101468326066	1.290733196999321	-1.878540039225819	-1.594923392852234	-187.90687251091	287.4620535373688	-5.94753485918045	24.30372001132625	140.1724382295255	-168.5170064026972	-0.1722351277828825	-4.890705621972021	-2.580784882243135	213.2717213630676	287.216891169548	0.05869996547698975	-434.772519627986	-320.6337578803885	-411.4290896837431
0.013	-0.6621082856590769	-0.7479473050178643	3.921187512136113	14.45976257324219	-321.9847340583801	-1.820896983146667	-333.6101561652277	-866.6570253743475	172.1556470350446	1.689071087167634	-2.19102194145098	-0.1660543952902451	-187.90687251091	287.4620535373688	-5.94753485918045	-55.66084257227811	118.7760478172449	-52.39046747509354	-0.3043889598441941	-5.387289075126318	-1.955774011064716	213.2717213630676	287.216891169548	0.05869996547698975	-643.8739923952012	-259.1320524617976	-385.9520809659605
0.014	-0.734762678074587	-0.8580467426000833	3.393958204195508	14.45976257324219	-321.9847340583801	-1.820896983146667	-218.0523623927457	-1057.550912469188	180.905500018903	1.650005064156796	-2.308832073768091	-0.245363121554238	-187.90687251091	287.4620535373688	-5.94753485918045	-205.525804958942	148.9977227615214	-136.1863210784729	-0.4655965368917269	-4.973487560598522	-2.349592869049814	213.2717213630676	287.216891169548	0.05869996547698975	-548.5267053312378	-299.0498227845262	-358.245910481895
0.015	-0.6418641972566144	-0.8367367707708623	3.480166584457819	14.45976257324219	-321.9847340583801	-1.820896983146667	-184.0427362391216	-890.1735654472317	145.2555657200461	1.178169859358713	-2.114279364124842	-0.6407485879127101	-187.90687251091	287.4620535373688	-5.94753485918045	-83.65959897801666	108.0012361048054	-166.4719901849323	-0.315490676621539	-5.013657234304386	-1.095208060636411	213.2717213630676	287.216891169548	0.05869996547698975	-799.0698615199552	-268.7033619260292	-492.4729028491967
0.016	-0.8698066804696524	-0.9955284419666749	3.570499559084956	14.45976257324219	-321.9847340583801	-1.820896983146667	-191.337837930941	-930.717300623476	189.0099092092507	1.60577847023545	-2.387428817595331	-1.516772280397237	-187.90687251091	287.4620535373688	-5.94753485918045	-50.22589786198475	-0.9601728580462932	-116.42193002516	0.1993546931530105	-5.221768317737765	-2.419209842217915	213.2717213630676	287.216891169548	0.05869996547698975	-605.7756268898744	-261.2271524183054	-372.2370330868046
0.017	-0.664257156262229	-1.132517096972831	3.831750316980876	14.45976257324219	-321.9847340583801	-1.820896983146667	-87.21178683666396	-976.197413673442	136.5164831134468	1.493885681160211	-2.623166573295298	-0.4036507327425449	-187.90687251091	287.4620535373688	-5.94753485918045	0.5159376860234693	62.7698657536085	-96.33939307000135	0.1903000653773728	-4.972558724923252	-1.71505730805779	213.2717213630676	287.216891169548	0.05869996547698975	-736.2157120117821	-176.7646747640882	-377.2566491206603
0.018	-0.5503438566019302	-0.8601375312238317	3.481069473509345	14.45976257324219	-321.9847340583801	-1.820896983146667	-199.4054081289424	-869.3176829843935	154.7274302378691	1.653620724737059	-2.387275859510933	0.549370316447461	-187.90687251091	287.4620535373688	-5.94753485918045	-273.3692297822795	244.1395432886414	-66.94274066604122	0.1855493119199442	-5.386446352761857	-1.323342059724688	213.2717213630676	287.216891169548	0.05869996547698975	-674.9781214678299	-242.5059124135971	-402.9603942679691
0.019	-0.7071731327970503	-0.9531132559326031	3.571413419237688	14.45976257324219	-321.9847340583801	-1.820896983146667	-231.5333832361317	-614.690488528004	189.4061452993684	0.9539307980183167	-2.350397938791642	1.66496870548111	-187.90687251091	287.4620535373688	-5.94753485918045	-112.2720280885688	244.5620271945648	-59.85747628775059	0.1953863331816477	-5.22147593689462	-2.106149281204213	213.2717213630676	287.216891169548	0.05869996547698975	-636.5395931297099	-336.4210718586826	-412.3283035603945
0.02	-0.8000065670913588	-0.9975691614062674	3.923854423014016	14.45976257324219	-321.9847340583801	-1.820896983146667	-252.9329037049401	-993.2996198449207	215.9528377356937	2.073866554373032	-2.464311566506896	-1.91612011425213	-187.90687251091	287.4620535373688	-5.94753485918045	-230.0125619095026	249.6549423438784	-84.36527790417057	0.1518706313803594	-5.138500875253892	-1.950222812315518	213.2717213630676	287.216891169548	0.05869996547698975	-602.9299911081142	-297.0048948128998	-320.7284218528658
0.021	-0.7155285576838842	-0.8310628799038056	2.426165766309207	14.45976257324219	-321.9847340583801	-1.820896983146667	-185.2353910333832	-931.6289472305888	164.2668347738472	2.149257303184027	-2.111019166902294	-2.313815847865387	-187.90687251091	287.4620535373688	-5.94753485918045	282.2419805329278	85.01813948751845	-109.9398677046776	-0.2582325023472368	-4.807678709007517	-2.34711917578149	213.2717213630676	287.216891169548	0.05869996547698975	-604.4126079241546	-213.8525008780844	-344.078994883787
0.022	-0.5284695890749771	-0.7444865702904868	3.653226600232872	14.45976257324219	-321.9847340583801	-1.820896983146667	-241.6532946181741	-1017.003012649369	102.2368834079987	1.530473326719668	-2.466136536278901	-0.8806554681960421	-187.90687251091	287.4620535373688	-5.94753485918045	-87.11421167028783	212.9546671401866	-150.7477941707428	-0.2601328037942016	-4.973233633724873	-2.190433076567127	213.2717213630676	287.216891169548	0.05869996547698975	-642.8414161061739	-307.7824523717145	-327.798758410243
